# This file uses centimeters as units for non-parametric coordinates.

mtllib fbx.mtl
g default
v -2.014537 0.016058 0.994130
v 2.014537 0.016058 0.994130
v -2.014537 1.016057 0.994130
v 2.014537 1.016057 0.994130
v -2.014537 1.016057 -0.005870
v 2.014537 1.016057 -0.005870
v -2.014537 0.016058 -0.005870
v 2.014537 0.016058 -0.005870
v -2.014537 1.016057 -1.005870
v 2.014537 1.016057 -1.005870
v 2.014537 0.016058 -1.005870
v -2.014537 0.016058 -1.005870
v -2.014537 2.016058 -0.005870
v 2.014537 2.016058 -0.005870
v 2.014537 2.016058 -1.005870
v -2.014537 2.016058 -1.005870
v -2.014537 1.016057 -2.005870
v 2.014537 1.016057 -2.005870
v -2.014537 2.016058 -2.005870
v 2.014537 2.016058 -2.005870
v -2.014537 3.016058 -1.005870
v 2.014537 3.016058 -1.005870
v 2.014537 3.016058 -2.005870
v -2.014537 3.016058 -2.005870
v -2.014537 2.016058 -3.005870
v 2.014537 2.016058 -3.005870
v -2.014537 3.016058 -3.005870
v 2.014537 3.016058 -3.005870
v -2.014537 4.016058 -2.005870
v 2.014537 4.016058 -2.005870
v 2.014537 4.016058 -3.005870
v -2.014537 4.016058 -3.005870
v -2.014537 3.016058 -4.005870
v 2.014537 3.016058 -4.005870
v -2.014537 4.016058 -4.005870
v 2.014537 4.016058 -4.005870
v -2.014537 5.016058 -3.005870
v 2.014537 5.016058 -3.005870
v 2.014537 5.016058 -4.005870
v -2.014537 5.016058 -4.005870
v -2.014537 0.019702 -1.005870
v 2.014537 0.019702 -1.005870
v -2.014537 0.019702 -2.005870
v 2.014537 0.019702 -2.005870
v -2.014537 1.019702 -2.005870
v 2.014537 1.019702 -2.005870
v -2.014537 1.019702 -3.005870
v 2.014537 1.019702 -3.005870
v -2.014537 2.019702 -3.005870
v 2.014537 2.019702 -3.005870
v -2.014537 2.019702 -4.005870
v 2.014537 2.019702 -4.005870
v -2.014537 0.019361 -2.005870
v 2.014537 0.019361 -2.005870
v -2.014537 0.019361 -3.005870
v 2.014537 0.019361 -3.005870
v -2.014537 1.019361 -3.005870
v 2.014537 1.019361 -3.005870
v -2.014537 1.019361 -4.005870
v 2.014537 1.019361 -4.005870
v -2.014537 0.018470 -3.005870
v 2.014537 0.018470 -3.005870
v -2.014537 0.018470 -4.005870
v 2.014537 0.018470 -4.005870
vt 0.001823 0.412516
vt 0.001823 0.330411
vt 0.083928 0.330411
vt 0.083928 0.412516
vt 0.001823 0.248306
vt 0.083928 0.248306
vt 0.166032 0.248306
vt 0.166032 0.330411
vt 0.083928 0.166201
vt 0.166032 0.166201
vt 0.002122 0.248306
vt 0.002122 0.166201
vt 0.248137 0.166201
vt 0.248137 0.248306
vt 0.166032 0.084097
vt 0.248137 0.084097
vt 0.084227 0.166201
vt 0.084227 0.084097
vt 0.330242 0.084097
vt 0.330242 0.166201
vt 0.002094 0.166201
vt 0.002094 0.084097
vt 0.248137 0.001992
vt 0.330242 0.001992
vt 0.166332 0.084097
vt 0.166332 0.001992
vt 0.412346 0.001992
vt 0.412346 0.084097
vt 0.084199 0.084097
vt 0.084199 0.001992
vt 0.002021 0.084097
vt 0.002021 0.001992
vt 0.747754 0.001992
vt 0.829859 0.001992
vt 0.829859 0.084097
vt 0.747754 0.084097
vt 0.665649 0.084097
vt 0.665649 0.001992
vt 0.747754 0.166201
vt 0.665649 0.166201
vt 0.583544 0.166201
vt 0.583544 0.084097
vt 0.665649 0.248306
vt 0.583544 0.248306
vt 0.583544 0.002291
vt 0.665649 0.002291
vt 0.501440 0.248306
vt 0.501440 0.166201
vt 0.583544 0.330411
vt 0.501440 0.330411
vt 0.501440 0.084396
vt 0.583544 0.084396
vt 0.419335 0.330411
vt 0.419335 0.248306
vt 0.501440 0.002263
vt 0.583544 0.002263
vt 0.501440 0.412516
vt 0.419335 0.412516
vt 0.419335 0.166501
vt 0.501440 0.166501
vt 0.419335 0.084368
vt 0.501440 0.084368
vt 0.419335 0.002190
vt 0.501440 0.002190
vt 0.918792 0.000000
vt 0.918792 1.000000
vt 0.751275 1.000000
vt 0.751275 0.000000
vt 0.248725 0.000000
vt 0.248725 1.000000
vt 0.081208 1.000000
vt 0.081209 0.000000
vt 0.416242 0.000000
vt 0.416242 1.000000
vt 0.751275 0.000000
vt 0.751275 1.000000
vt 0.583758 1.000000
vt 0.583758 0.000000
vt 0.416242 1.000000
vt 0.416242 0.000000
vt 0.583758 0.000000
vt 0.583758 1.000000
vt 0.583758 0.000000
vt 0.583758 1.000000
vt 0.416242 1.000000
vt 0.416242 0.000000
vt 0.583758 1.000000
vt 0.583758 0.000000
vt 0.751275 0.000000
vt 0.751275 1.000000
vt 0.416242 0.000000
vt 0.416242 1.000000
vt 0.248725 1.000000
vt 0.248725 0.000000
vt 0.751275 1.000000
vt 0.751275 0.000000
vt 0.918792 0.000000
vt 0.918792 1.000000
vt 0.248725 -0.000000
vt 0.248725 1.000000
vt 0.081209 1.000000
vt 0.081209 -0.000000
vt 0.583758 0.000000
vt 0.583758 1.000000
vt 0.416242 1.000000
vt 0.416242 0.000000
vt 0.129416 0.416168
vt 0.211520 0.416168
vt 0.211520 0.498273
vt 0.129416 0.498273
vt 0.835033 0.000000
vt 0.835033 1.000000
vt 0.667517 1.000000
vt 0.667517 0.000000
vt 0.474678 0.498273
vt 0.392573 0.498273
vt 0.392573 0.416168
vt 0.474678 0.416168
vt 0.474678 0.580078
vt 0.392573 0.580078
vt 0.667517 0.000000
vt 0.667517 1.000000
vt 0.500000 1.000000
vt 0.500000 0.000000
vt 0.737835 0.498273
vt 0.655730 0.498273
vt 0.655730 0.416168
vt 0.737835 0.416168
vt 0.737835 0.580078
vt 0.655730 0.580078
vt 0.737835 0.662211
vt 0.655730 0.662211
vt 0.500000 0.000000
vt 0.500000 1.000000
vt 0.332483 1.000000
vt 0.332483 0.000000
vt 0.583556 1.000000
vt 0.583556 0.000000
vt 0.751073 0.000000
vt 0.751073 1.000000
vt 0.918589 0.000000
vt 0.918589 1.000000
vt 0.416650 1.000000
vt 0.416650 0.000000
vt 0.249076 1.000000
vt 0.249076 0.000000
vt 0.081410 1.000000
vt 0.081411 0.000000
vt 0.332483 0.000000
vt 0.332483 1.000000
vt 0.164967 1.000000
vt 0.164967 -0.000000
vt 0.913273 0.915903
vt 0.913273 0.998008
vt 0.831467 0.998008
vt 0.831467 0.915903
vt 0.562397 0.580106
vt 0.480292 0.580106
vt 0.480292 0.498301
vt 0.562397 0.498301
vt 0.480292 0.416168
vt 0.562397 0.416168
vt 0.825554 0.662284
vt 0.743449 0.662284
vt 0.743449 0.580479
vt 0.825554 0.580479
vt 0.743449 0.498346
vt 0.825554 0.498346
vt 0.743449 0.416168
vt 0.825554 0.416168
vn 0.000000 0.000000 1.000000
vn 0.000000 0.000000 1.000000
vn 0.000000 0.000000 1.000000
vn 0.000000 0.000000 1.000000
vn 0.000000 1.000000 0.000000
vn 0.000000 1.000000 0.000000
vn 0.000000 1.000000 0.000000
vn 0.000000 1.000000 0.000000
vn 0.000000 0.000000 -1.000000
vn 0.000000 0.000000 -1.000000
vn 0.000000 0.000000 -1.000000
vn 0.000000 0.000000 -1.000000
vn 0.000000 -1.000000 0.000000
vn 0.000000 -1.000000 0.000000
vn 0.000000 -1.000000 0.000000
vn 0.000000 -1.000000 0.000000
vn 1.000000 0.000000 0.000000
vn 1.000000 0.000000 0.000000
vn 1.000000 0.000000 0.000000
vn 1.000000 0.000000 0.000000
vn -1.000000 0.000000 0.000000
vn -1.000000 0.000000 0.000000
vn -1.000000 0.000000 0.000000
vn -1.000000 0.000000 0.000000
vn 0.000000 1.000000 0.000000
vn 0.000000 1.000000 0.000000
vn 0.000000 1.000000 0.000000
vn 0.000000 1.000000 0.000000
vn 1.000000 0.000000 0.000000
vn 1.000000 0.000000 0.000000
vn 0.000000 -1.000000 0.000000
vn 0.000000 -1.000000 0.000000
vn -1.000000 0.000000 0.000000
vn -1.000000 0.000000 0.000000
vn 0.000000 0.000000 1.000000
vn 0.000000 0.000000 1.000000
vn 0.000000 0.000000 1.000000
vn 0.000000 0.000000 1.000000
vn 1.000000 0.000000 0.000000
vn 1.000000 0.000000 0.000000
vn 0.000000 0.000000 -1.000000
vn 0.000000 0.000000 -1.000000
vn 0.000000 0.000000 -1.000000
vn 0.000000 0.000000 -1.000000
vn -1.000000 0.000000 0.000000
vn -1.000000 0.000000 0.000000
vn 0.000000 -1.000000 0.000000
vn 0.000000 -1.000000 0.000000
vn 0.000000 -1.000000 0.000000
vn 0.000000 -1.000000 0.000000
vn -1.000000 0.000000 0.000000
vn -1.000000 0.000000 0.000000
vn 0.000000 1.000000 0.000000
vn 0.000000 1.000000 0.000000
vn 0.000000 1.000000 0.000000
vn 0.000000 1.000000 0.000000
vn 1.000000 0.000000 0.000000
vn 1.000000 0.000000 0.000000
vn 0.000000 0.000000 1.000000
vn 0.000000 0.000000 1.000000
vn 0.000000 0.000000 1.000000
vn 0.000000 0.000000 1.000000
vn 1.000000 0.000000 0.000000
vn 1.000000 0.000000 0.000000
vn 0.000000 0.000000 -1.000000
vn 0.000000 0.000000 -1.000000
vn 0.000000 0.000000 -1.000000
vn 0.000000 0.000000 -1.000000
vn -1.000000 0.000000 0.000000
vn -1.000000 0.000000 0.000000
vn 0.000000 -1.000000 0.000000
vn 0.000000 -1.000000 0.000000
vn 0.000000 -1.000000 0.000000
vn 0.000000 -1.000000 0.000000
vn -1.000000 0.000000 0.000000
vn -1.000000 0.000000 0.000000
vn 0.000000 1.000000 0.000000
vn 0.000000 1.000000 0.000000
vn 0.000000 1.000000 0.000000
vn 0.000000 1.000000 0.000000
vn 1.000000 0.000000 0.000000
vn 1.000000 0.000000 0.000000
vn 0.000000 0.000000 1.000000
vn 0.000000 0.000000 1.000000
vn 0.000000 0.000000 1.000000
vn 0.000000 0.000000 1.000000
vn 1.000000 0.000000 0.000000
vn 1.000000 0.000000 0.000000
vn 0.000000 0.000000 -1.000000
vn 0.000000 0.000000 -1.000000
vn 0.000000 0.000000 -1.000000
vn 0.000000 0.000000 -1.000000
vn -1.000000 0.000000 0.000000
vn -1.000000 0.000000 0.000000
vn 0.000000 -1.000000 0.000000
vn 0.000000 -1.000000 0.000000
vn 0.000000 -1.000000 0.000000
vn 0.000000 -1.000000 0.000000
vn -1.000000 0.000000 0.000000
vn -1.000000 0.000000 0.000000
vn 0.000000 1.000000 0.000000
vn 0.000000 1.000000 0.000000
vn 0.000000 1.000000 0.000000
vn 0.000000 1.000000 0.000000
vn 1.000000 0.000000 0.000000
vn 1.000000 0.000000 0.000000
vn 0.000000 0.000000 1.000000
vn 0.000000 0.000000 1.000000
vn 0.000000 0.000000 1.000000
vn 0.000000 0.000000 1.000000
vn 1.000000 0.000000 0.000000
vn 1.000000 0.000000 0.000000
vn 0.000000 0.000000 -1.000000
vn 0.000000 0.000000 -1.000000
vn -1.000000 0.000000 0.000000
vn -1.000000 0.000000 0.000000
vn 0.000000 0.000000 1.000000
vn 0.000000 0.000000 1.000000
vn 0.000000 0.000000 1.000000
vn 0.000000 0.000000 1.000000
vn -1.000000 0.000000 0.000000
vn -1.000000 0.000000 0.000000
vn 0.000000 0.000000 -1.000000
vn 0.000000 0.000000 -1.000000
vn 1.000000 0.000000 0.000000
vn 1.000000 0.000000 0.000000
vn 0.000000 0.000000 1.000000
vn 0.000000 0.000000 1.000000
vn 0.000000 0.000000 1.000000
vn 0.000000 0.000000 1.000000
vn -1.000000 0.000000 0.000000
vn -1.000000 0.000000 0.000000
vn 0.000000 0.000000 -1.000000
vn 0.000000 0.000000 -1.000000
vn 1.000000 0.000000 0.000000
vn 1.000000 0.000000 0.000000
vn 0.000000 0.000000 1.000000
vn 0.000000 0.000000 1.000000
vn 0.000000 0.000000 1.000000
vn 0.000000 0.000000 1.000000
vn -1.000000 0.000000 0.000000
vn -1.000000 0.000000 0.000000
vn 0.000000 0.000000 -1.000000
vn 0.000000 0.000000 -1.000000
vn 1.000000 0.000000 0.000000
vn 1.000000 0.000000 0.000000
vn 0.000000 0.000000 1.000000
vn 0.000000 0.000000 1.000000
vn -1.000000 0.000000 0.000000
vn -1.000000 0.000000 0.000000
vn 0.000000 0.000000 -1.000000
vn 0.000000 0.000000 -1.000000
vn 1.000000 0.000000 0.000000
vn 1.000000 0.000000 0.000000
vn 0.000000 0.000000 1.000000
vn 0.000000 0.000000 1.000000
vn -1.000000 0.000000 0.000000
vn -1.000000 0.000000 0.000000
vn 0.000000 0.000000 -1.000000
vn 0.000000 0.000000 -1.000000
vn 1.000000 0.000000 0.000000
vn 1.000000 0.000000 0.000000
vn 0.000000 0.000000 1.000000
vn 0.000000 0.000000 1.000000
vn -1.000000 0.000000 0.000000
vn -1.000000 0.000000 0.000000
vn 0.000000 0.000000 -1.000000
vn 0.000000 0.000000 -1.000000
vn 1.000000 0.000000 0.000000
vn 1.000000 0.000000 0.000000
s off
g pCube1
usemtl initialShadingGroup
f 1/103/1 2/104/2 4/105/3 3/106/4
f 3/65/5 4/66/6 6/67/7 5/68/8
f 9/107/9 10/108/10 11/109/11 12/110/12
s 1
f 7/69/13 8/70/14 2/71/15 1/72/16
s 2
f 2/1/17 8/2/18 6/3/19 4/4/20
s 3
f 7/33/21 1/34/22 3/35/23 5/36/24
s off
f 13/75/25 14/76/26 15/77/27 16/78/28
s 2
f 6/3/19 8/2/18 11/5/29 10/6/30
s 1
f 8/70/14 7/69/13 12/73/31 11/74/32
s 3
f 7/33/21 5/36/24 9/37/33 12/38/34
s off
f 5/111/35 6/112/36 14/113/37 13/114/38
s 2
f 6/3/19 10/6/30 15/7/39 14/8/40
s 4
f 18/115/41 17/116/42 19/117/43 20/118/44
s 3
f 9/37/33 5/36/24 13/39/45 16/40/46
s off
f 42/79/47 41/80/48 43/81/49 44/82/50
s 3
f 9/37/33 16/40/46 19/41/51 17/42/52
s off
f 21/83/53 22/84/54 23/85/55 24/86/56
s 2
f 15/7/39 10/6/30 18/9/57 20/10/58
s off
f 16/121/59 15/122/60 22/123/61 21/124/62
s 2
f 15/7/39 20/10/58 23/13/63 22/14/64
s 5
f 26/125/65 25/126/66 27/127/67 28/128/68
s 3
f 19/41/51 16/40/46 21/43/69 24/44/70
s off
f 54/87/71 53/88/72 55/89/73 56/90/74
s 3
f 19/41/51 24/44/70 27/47/75 25/48/76
s off
f 29/91/77 30/92/78 31/93/79 32/94/80
s 2
f 23/13/63 20/10/58 26/15/81 28/16/82
s off
f 24/133/83 23/134/84 30/135/85 29/136/86
s 2
f 23/13/63 28/16/82 31/19/87 30/20/88
s 6
f 34/137/89 33/138/90 35/139/91 36/140/92
s 3
f 27/47/75 24/44/70 29/49/93 32/50/94
s off
f 62/95/95 61/96/96 63/97/97 64/98/98
s 3
f 27/47/75 32/50/94 35/53/99 33/54/100
s off
f 37/99/101 38/100/102 39/101/103 40/102/104
s 2
f 31/19/87 28/16/82 34/23/105 36/24/106
s off
f 32/149/107 31/150/108 38/151/109 37/152/110
s 2
f 31/19/87 36/24/106 39/27/111 38/28/112
s 6
f 36/140/92 35/139/91 40/141/113 39/142/114
s 3
f 35/53/99 32/50/94 37/57/115 40/58/116
s off
f 10/153/117 9/154/118 41/155/119 42/156/120
s 3
f 9/37/33 17/42/52 43/45/121 41/46/122
s 4
f 17/116/42 18/115/41 44/119/123 43/120/124
s 2
f 18/9/57 10/6/30 42/11/125 44/12/126
s 7
f 20/157/127 19/158/128 45/159/129 46/160/130
s 3
f 19/41/51 25/48/76 47/51/131 45/52/132
s 5
f 25/126/66 26/125/65 48/129/133 47/130/134
s 2
f 26/15/81 20/10/58 46/17/135 48/18/136
s 8
f 28/163/137 27/164/138 49/165/139 50/166/140
s 3
f 27/47/75 33/54/100 51/59/141 49/60/142
s 6
f 33/138/90 34/137/89 52/143/143 51/144/144
s 2
f 34/23/105 28/16/82 50/25/145 52/26/146
s 7
f 46/160/130 45/159/129 53/161/147 54/162/148
s 3
f 45/52/132 47/51/131 55/55/149 53/56/150
s 5
f 47/130/134 48/129/133 56/131/151 55/132/152
s 2
f 48/18/136 46/17/135 54/21/153 56/22/154
s 8
f 50/166/140 49/165/139 57/167/155 58/168/156
s 3
f 49/60/142 51/59/141 59/61/157 57/62/158
s 6
f 51/144/144 52/143/143 60/145/159 59/146/160
s 2
f 52/26/146 50/25/145 58/29/161 60/30/162
s 8
f 58/168/156 57/167/155 61/169/163 62/170/164
s 3
f 57/62/158 59/61/157 63/63/165 61/64/166
s 6
f 59/146/160 60/145/159 64/147/167 63/148/168
s 2
f 60/30/162 58/29/161 62/31/169 64/32/170
